<svg xmlns="http://www.w3.org/2000/svg" version="1.1" xmlns:xlink="http://www.w3.org/1999/xlink" viewBox="0 0 200 200" width="200" height="200"><rect width="200" height="200" fill="url('#gradient')"></rect><defs><linearGradient id="gradient" gradientTransform="rotate(45 0.5 0.5)"><stop offset="0%" stop-color="#ffffff"></stop><stop offset="100%" stop-color="#ad6ce9"></stop></linearGradient></defs><g><g fill="#2c313e" transform="matrix(1.9064956557716177,0,0,1.9064956557716177,8.899903777245399,114.11041125690932)" stroke="#ffe5f0" stroke-width="0.2"><path d="M10.79-2.54L10.79 0L0.87 0L0.87-2.15L5.44-6.95Q7.13-8.88 7.13-10.01L7.13-10.01Q7.13-10.93 6.73-11.41Q6.33-11.88 5.57-11.88L5.57-11.88Q4.81-11.88 4.35-11.25Q3.88-10.61 3.88-9.65L3.88-9.65L0.58-9.65Q0.58-10.96 1.23-12.07Q1.88-13.17 3.05-13.80Q4.21-14.42 5.64-14.42L5.64-14.42Q7.95-14.42 9.19-13.36Q10.44-12.29 10.44-10.30L10.44-10.30Q10.44-9.46 10.13-8.67Q9.81-7.87 9.16-7.00Q8.50-6.12 7.03-4.66L7.03-4.66L5.20-2.54L10.79-2.54ZM22.32-8.40L22.32-5.81Q22.32-2.93 21.03-1.37Q19.74 0.20 17.38 0.20L17.38 0.20Q15.01 0.20 13.71-1.38Q12.41-2.95 12.41-5.81L12.41-5.81L12.41-8.41Q12.41-11.29 13.71-12.85Q15-14.41 17.36-14.41Q19.73-14.41 21.03-12.84Q22.32-11.27 22.32-8.40L22.32-8.40ZM19.03-5.31L19.03-8.83Q19.03-10.36 18.63-11.12Q18.23-11.88 17.36-11.88L17.36-11.88Q16.51-11.88 16.13-11.17Q15.74-10.47 15.71-9.04L15.71-9.04L15.71-5.41Q15.71-3.82 16.11-3.08Q16.51-2.34 17.38-2.34L17.38-2.34Q18.22-2.34 18.62-3.06Q19.02-3.78 19.03-5.31L19.03-5.31ZM32.72-14.22L32.72-5.56L34.17-5.56L34.17-3.02L32.72-3.02L32.72 0L29.43 0L29.43-3.02L23.94-3.02L23.74-5.03L29.43-14.19L29.43-14.22L32.72-14.22ZM29.23-9.60L26.88-5.56L29.43-5.56L29.43-9.93L29.23-9.60ZM45.21-10.42L45.21-10.42Q45.21-9.38 44.69-8.59Q44.18-7.80 43.28-7.32L43.28-7.32Q44.30-6.83 44.89-5.96Q45.49-5.10 45.49-3.92L45.49-3.92Q45.49-2.01 44.17-0.91Q42.86 0.20 40.56 0.20L40.56 0.20Q38.24 0.20 36.90-0.91Q35.57-2.02 35.57-3.92L35.57-3.92Q35.57-5.06 36.15-5.94Q36.74-6.82 37.81-7.32L37.81-7.32Q36.90-7.80 36.39-8.59Q35.87-9.38 35.87-10.42L35.87-10.42Q35.87-12.28 37.13-13.35Q38.39-14.42 40.53-14.42L40.53-14.42Q42.69-14.42 43.95-13.35Q45.21-12.28 45.21-10.42ZM42.19-4.18L42.19-4.18Q42.19-5.06 41.73-5.53Q41.28-6.01 40.54-6.01Q39.79-6.01 39.34-5.53Q38.88-5.06 38.88-4.18L38.88-4.18Q38.88-3.33 39.34-2.84Q39.80-2.34 40.56-2.34L40.56-2.34Q41.29-2.34 41.74-2.83Q42.19-3.32 42.19-4.18ZM40.53-11.88L40.53-11.88Q39.86-11.88 39.52-11.45Q39.17-11.02 39.17-10.24L39.17-10.24Q39.17-9.48 39.52-9.01Q39.87-8.54 40.56-8.54L40.56-8.54Q41.23-8.54 41.57-9.01Q41.90-9.48 41.90-10.24Q41.90-11.01 41.56-11.45Q41.21-11.88 40.53-11.88ZM58.05-4.46L58.05-14.22L61.46-14.22L61.46-4.46Q61.46-3.11 60.83-2.04Q60.21-0.98 59.08-0.39Q57.95 0.20 56.56 0.20L56.56 0.20Q54.24 0.20 52.95-0.98Q51.66-2.15 51.66-4.30L51.66-4.30L55.10-4.30Q55.10-3.32 55.43-2.88Q55.77-2.44 56.56-2.44L56.56-2.44Q57.28-2.44 57.66-2.97Q58.05-3.51 58.05-4.46L58.05-4.46ZM69.86 0L69.77-1.14Q68.72 0.20 66.94 0.20L66.94 0.20Q65.21 0.20 64.31-0.82Q63.42-1.83 63.42-3.72L63.42-3.72L63.42-10.57L66.71-10.57L66.71-3.70Q66.71-2.34 68.03-2.34L68.03-2.34Q69.16-2.34 69.64-3.15L69.64-3.15L69.64-10.57L72.95-10.57L72.95 0L69.86 0ZM78.22-15L78.22 0L74.92 0L74.92-15L78.22-15ZM83.72-10.57L83.72 0L80.42 0L80.42-10.57L83.72-10.57ZM80.22-13.29L80.22-13.29Q80.22-13.99 80.73-14.44Q81.24-14.89 82.05-14.89Q82.86-14.89 83.37-14.44Q83.88-13.99 83.88-13.29Q83.88-12.59 83.37-12.14Q82.86-11.69 82.05-11.69Q81.24-11.69 80.73-12.14Q80.22-12.59 80.22-13.29ZM94.99 0L91.70 0Q91.52-0.32 91.39-0.95L91.39-0.95Q90.48 0.20 88.85 0.20L88.85 0.20Q87.35 0.20 86.31-0.71Q85.26-1.61 85.26-2.98L85.26-2.98Q85.26-4.70 86.53-5.58Q87.80-6.46 90.22-6.46L90.22-6.46L91.24-6.46L91.24-7.01Q91.24-8.47 89.98-8.47L89.98-8.47Q88.81-8.47 88.81-7.31L88.81-7.31L85.52-7.31Q85.52-8.85 86.82-9.80Q88.13-10.76 90.15-10.76Q92.17-10.76 93.34-9.78Q94.51-8.79 94.54-7.07L94.54-7.07L94.54-2.39Q94.56-0.94 94.99-0.17L94.99-0.17L94.99 0ZM89.64-2.15L89.64-2.15Q90.25-2.15 90.66-2.41Q91.06-2.68 91.24-3.01L91.24-3.01L91.24-4.70L90.28-4.70Q88.56-4.70 88.56-3.15L88.56-3.15Q88.56-2.71 88.87-2.43Q89.17-2.15 89.64-2.15Z"></path></g></g></svg>